<?xml version="1.0" encoding="utf-8"?>
<!-- Generator: Adobe Illustrator 17.1.0, SVG Export Plug-In . SVG Version: 6.00 Build 0)  -->
<!DOCTYPE svg PUBLIC "-//W3C//DTD SVG 1.1//EN" "http://www.w3.org/Graphics/SVG/1.1/DTD/svg11.dtd">
<svg version="1.1" id="Layer_1" xmlns="http://www.w3.org/2000/svg" xmlns:xlink="http://www.w3.org/1999/xlink" x="0px" y="0px"
	 viewBox="0 0 50 50" enable-background="new 0 0 50 50" xml:space="preserve">
<g>
	<path fill-rule="evenodd" clip-rule="evenodd" fill="#8B93C9" d="M25,0.6c-13.8,0-25,11.2-25,25c0,11,7.2,20.4,17.1,23.7
		c1.2,0.2,1.7-0.5,1.7-1.2c0-0.6,0-2.6,0-4.7c-7,1.5-8.4-2.9-8.4-2.9c-1.1-2.9-2.8-3.7-2.8-3.7c-2.3-1.6,0.2-1.5,0.2-1.5
		c2.5,0.2,3.8,2.6,3.8,2.6c2.2,3.8,5.8,2.7,7.3,2.1c0.2-1.6,0.9-2.7,1.6-3.3C14.9,36,9,33.9,9,24.3c0-2.7,1-5,2.6-6.7
		c-0.3-0.6-1.1-3.2,0.2-6.6c0,0,2.1-0.7,6.9,2.6c2-0.6,4.1-0.8,6.3-0.8c2.1,0,4.3,0.3,6.3,0.8c4.8-3.2,6.9-2.6,6.9-2.6
		c1.4,3.4,0.5,6,0.2,6.6c1.6,1.8,2.6,4,2.6,6.7c0,9.6-5.8,11.7-11.4,12.3c0.9,0.8,1.7,2.3,1.7,4.6c0,3.3,0,6,0,6.9
		c0,0.7,0.4,1.4,1.7,1.2C42.8,46,50,36.7,50,25.6C50,11.8,38.8,0.6,25,0.6z"/>
	<path fill="#8B93C9" d="M9.5,36.5c-0.1,0.1-0.3,0.2-0.4,0.1c-0.2-0.1-0.3-0.3-0.2-0.4c0.1-0.1,0.2-0.2,0.4-0.1
		C9.4,36.2,9.5,36.4,9.5,36.5L9.5,36.5z M9.2,36.3"/>
	<path fill="#8B93C9" d="M10.5,37.6c-0.1,0.1-0.4,0.1-0.5-0.1c-0.2-0.2-0.2-0.4-0.1-0.5c0.1-0.1,0.3-0.1,0.5,0.1
		C10.6,37.3,10.6,37.5,10.5,37.6L10.5,37.6z M10.2,37.4"/>
	<path fill="#8B93C9" d="M11.5,39.1c-0.2,0.1-0.4,0-0.6-0.2c-0.2-0.2-0.2-0.5,0-0.6c0.2-0.1,0.4,0,0.6,0.2
		C11.6,38.7,11.6,39,11.5,39.1L11.5,39.1z M11.5,39.1"/>
	<path fill="#8B93C9" d="M12.8,40.5c-0.1,0.2-0.4,0.1-0.6-0.1c-0.2-0.2-0.3-0.5-0.1-0.6c0.1-0.2,0.4-0.1,0.6,0.1
		C12.9,40,13,40.3,12.8,40.5L12.8,40.5z M12.8,40.5"/>
	<path fill="#8B93C9" d="M14.7,41.3c-0.1,0.2-0.3,0.3-0.6,0.2c-0.3-0.1-0.5-0.3-0.4-0.5c0.1-0.2,0.3-0.3,0.6-0.2
		C14.6,40.9,14.7,41.1,14.7,41.3L14.7,41.3z M14.7,41.3"/>
	<path fill="#8B93C9" d="M16.7,41.4c0,0.2-0.2,0.4-0.5,0.4c-0.3,0-0.5-0.2-0.5-0.4c0-0.2,0.2-0.4,0.5-0.4
		C16.5,41.1,16.7,41.2,16.7,41.4L16.7,41.4z M16.7,41.4"/>
	<path fill="#8B93C9" d="M18.6,41.1c0,0.2-0.2,0.4-0.5,0.5c-0.3,0.1-0.6-0.1-0.6-0.3c0-0.2,0.2-0.4,0.5-0.5
		C18.3,40.8,18.6,40.9,18.6,41.1L18.6,41.1z M18.6,41.1"/>
</g>
</svg>
