<?xml version="1.0" encoding="utf-8"?>
<!-- Generator: Adobe Illustrator 17.1.0, SVG Export Plug-In . SVG Version: 6.00 Build 0)  -->
<!DOCTYPE svg PUBLIC "-//W3C//DTD SVG 1.1//EN" "http://www.w3.org/Graphics/SVG/1.1/DTD/svg11.dtd">
<svg version="1.1" id="Layer_1" xmlns="http://www.w3.org/2000/svg" xmlns:xlink="http://www.w3.org/1999/xlink" x="0px" y="0px"
	 viewBox="0 0 50 50" enable-background="new 0 0 50 50" xml:space="preserve">
<path fill-rule="evenodd" clip-rule="evenodd" fill="#8B93C9" d="M6.4,0h37.2C47.1,0,50,2.9,50,6.4v37.2c0,3.5-2.9,6.4-6.4,6.4H6.4
	C2.9,50,0,47.1,0,43.6V6.4C0,2.9,2.9,0,6.4,0L6.4,0z M36.4,5.6c-1.2,0-2.3,1-2.3,2.3v5.4c0,1.2,1,2.3,2.3,2.3h5.7
	c1.2,0,2.3-1,2.3-2.3V7.8c0-1.2-1-2.3-2.3-2.3H36.4L36.4,5.6z M44.3,21.1h-4.4c0.4,1.4,0.6,2.8,0.6,4.3c0,8.3-7,15.1-15.5,15.1
	c-8.6,0-15.5-6.7-15.5-15.1c0-1.5,0.2-2.9,0.6-4.3H5.6v21.1c0,1.1,0.9,2,2,2h34.8c1.1,0,2-0.9,2-2V21.1L44.3,21.1z M25,15.2
	c-5.5,0-10,4.4-10,9.7c0,5.4,4.5,9.7,10,9.7c5.5,0,10-4.4,10-9.7C35.1,19.5,30.6,15.2,25,15.2z"/>
</svg>
