<?xml version="1.0" encoding="utf-8"?>
<!-- Generator: Adobe Illustrator 17.1.0, SVG Export Plug-In . SVG Version: 6.00 Build 0)  -->
<!DOCTYPE svg PUBLIC "-//W3C//DTD SVG 1.1//EN" "http://www.w3.org/Graphics/SVG/1.1/DTD/svg11.dtd">
<svg version="1.1" id="Layer_1" xmlns="http://www.w3.org/2000/svg" xmlns:xlink="http://www.w3.org/1999/xlink" x="0px" y="0px"
	 viewBox="0 0 50 50" enable-background="new 0 0 50 50" xml:space="preserve">
<g>
	<path fill="#8A93CA" d="M11.3,5.7c0,3-2.2,5.3-5.8,5.3C2.2,11,0,8.6,0,5.7c0-3,2.2-5.3,5.7-5.3C9.1,0.3,11.2,2.7,11.3,5.7z
		 M0.3,49.7V15.3H11v34.4H0.3z"/>
	<path fill="#8A93CA" d="M17.4,26.2c0-4.3-0.1-7.9-0.3-11h9.3l0.5,4.8h0.2c1.4-2.3,4.9-5.6,10.6-5.6c7,0,12.3,4.7,12.3,14.8v20.3
		H39.3V30.6c0-4.4-1.5-7.5-5.4-7.5c-3,0-4.7,2-5.5,4c-0.3,0.7-0.4,1.7-0.4,2.7v19.8H17.4V26.2z"/>
</g>
</svg>
