<?xml version="1.0" encoding="utf-8"?>
<!-- Generator: Adobe Illustrator 17.1.0, SVG Export Plug-In . SVG Version: 6.00 Build 0)  -->
<!DOCTYPE svg PUBLIC "-//W3C//DTD SVG 1.1//EN" "http://www.w3.org/Graphics/SVG/1.1/DTD/svg11.dtd">
<svg version="1.1" id="Layer_1" xmlns="http://www.w3.org/2000/svg" xmlns:xlink="http://www.w3.org/1999/xlink" x="0px" y="0px"
	 viewBox="0 0 50 50" enable-background="new 0 0 50 50" xml:space="preserve">
<g>
	<path fill="#8A93CA" d="M0,0v50h50V0H0z M37.2,18.2h-1c-0.4,0-0.8,0.5-0.8,0.8v12c0,0.3,0.4,0.8,0.8,0.8h1v2.8h-8.7v-2.8h1.7V19.2
		h-0.1l-4.3,15.4h-3.3l-4.2-15.4h-0.1v12.6h1.8v2.8h-7.4v-2.8h0.9c0.4,0,0.8-0.5,0.8-0.8V19c0-0.3-0.4-0.8-0.8-0.8h-0.9v-2.9h9.2
		l3,11.2H25l3-11.2h9.1V18.2z"/>
</g>
</svg>
