<?xml version="1.0" encoding="utf-8"?>
<!-- Generator: Adobe Illustrator 17.1.0, SVG Export Plug-In . SVG Version: 6.00 Build 0)  -->
<!DOCTYPE svg PUBLIC "-//W3C//DTD SVG 1.1//EN" "http://www.w3.org/Graphics/SVG/1.1/DTD/svg11.dtd">
<svg version="1.1" id="Layer_1" xmlns="http://www.w3.org/2000/svg" xmlns:xlink="http://www.w3.org/1999/xlink" x="0px" y="0px"
	 viewBox="0 0 50 50" enable-background="new 0 0 50 50" xml:space="preserve">
<path fill="#8B93C9" d="M25,0C11.2,0,0,11.2,0,25c0,13.8,11.2,25,25,25c13.8,0,25-11.2,25-25C50,11.2,38.8,0,25,0z M36.1,38.7
	c-0.4,0.4-0.9,0.7-1.4,0.6c-0.3,0-0.7-0.1-0.9-0.4c-3.7-3-8.2-4.7-13-5c-2.8-0.2-5.5,0.1-8.1,0.9c-0.9,0.3-1.8-0.2-2.1-1.1
	c-0.3-0.9,0.2-1.8,1.1-2.1c3-0.9,6.1-1.2,9.3-1c5.4,0.3,10.6,2.3,14.9,5.7C36.5,36.9,36.7,38,36.1,38.7z M40.2,31.3
	c-0.4,0.5-1,0.8-1.6,0.8c-0.3,0-0.7-0.1-1-0.3c-4.8-3.4-10.4-5.4-16.3-5.8c-3.3-0.2-6.5,0.1-9.7,0.9c-1,0.3-2-0.4-2.3-1.4
	c-0.3-1,0.4-2,1.4-2.3c3.5-0.9,7.2-1.2,10.8-1c6.6,0.4,12.9,2.6,18.3,6.5C40.6,29.3,40.8,30.4,40.2,31.3z M42.4,24.7
	c-0.4,0-0.7-0.1-1-0.4c-5.8-3.9-12.6-6.2-19.6-6.7c-3.8-0.2-7.6,0.1-11.3,0.9c-1.1,0.3-2.2-0.4-2.5-1.6c-0.3-1.1,0.4-2.2,1.6-2.5
	c4.1-0.9,8.3-1.3,12.5-1c7.8,0.5,15.3,3,21.7,7.4c1,0.6,1.2,1.9,0.6,2.9C43.9,24.4,43.2,24.8,42.4,24.7z"/>
</svg>
